<svg width="442" height="533" viewBox="0 0 442 533" fill="none" xmlns="http://www.w3.org/2000/svg">
<path d="M347.68 356.6H295.602L290 336.44C343.762 323.561 349.922 289.96 356.078 235.64C356.637 232.839 356.637 229.48 357.2 226.12C369.52 223.882 388.558 216.042 388.558 184.12C388.558 160.042 377.359 145.479 356.078 141.561C356.078 128.682 356.079 114.121 354.399 96.2025C349.922 31.2375 310.719 17.2375 257.52 13.8785C212.719 10.5191 135.44 13.3199 100.72 1.5585C93.4386 -1.2423 86.1608 4.3593 90.0788 13.3205C92.3171 18.9221 94.5593 24.5195 95.6804 29.5585C93.4421 28.9999 91.7585 27.8788 89.5202 27.3202C85.6022 26.1991 81.1218 30.121 82.8014 34.6014C88.403 54.2034 85.0397 118.042 83.36 142.121C63.2 146.043 52.001 160.601 52.001 184.121C52.001 216.043 71.04 223.883 83.36 226.121C83.9186 229.481 83.9186 232.282 84.4811 235.641C90.0827 289.961 96.8011 323 150.559 336.441L144.958 356.601H93.4375C42.4765 356.601 0.476501 398.042 0.476501 448.999V499.397C0.476501 517.877 15.5975 532.999 34.0785 532.999H407.599C426.079 532.999 441.201 517.878 441.201 499.397V448.999C440.079 398.038 398.641 356.601 347.68 356.601L347.68 356.6ZM108.56 233.4C108.001 227.798 107.439 222.201 106.88 216.599C106.322 209.318 100.162 203.158 92.3213 202.599C81.1223 201.478 76.0833 199.798 76.0833 184.119C76.0833 168.439 81.6849 165.639 94.0053 165.639C97.9272 165.639 99.0444 166.76 99.6069 168.998C101.845 175.717 109.126 179.076 115.287 176.838C122.006 174.6 125.365 167.319 123.127 161.158C120.889 154.998 117.525 150.517 113.049 147.158C115.287 128.119 118.088 111.318 122.568 97.3182C139.369 107.396 169.048 114.677 220.009 114.677C271.529 114.677 301.771 107.396 318.009 96.7552C322.49 110.755 325.29 127.556 327.529 146.595C323.048 149.955 319.13 154.994 316.888 161.154C314.649 167.314 318.009 174.595 324.169 176.834C330.888 179.072 337.61 175.713 339.849 169.553C340.97 167.315 342.087 165.631 345.451 165.631C357.213 165.631 363.372 168.432 363.372 184.111C363.372 199.79 358.892 201.47 347.135 202.591C339.853 203.15 333.694 209.31 333.135 216.032C332.576 221.634 332.013 227.231 331.455 232.833C324.72 296.681 322.482 317.962 220.005 317.962C117.528 317.962 115.285 296.681 108.565 233.4L108.56 233.4ZM266.48 396.92L233.441 421.561C225.601 427.163 214.402 427.163 206.562 421.561L173.523 396.92C166.242 391.318 162.882 382.361 165.125 373.4L174.086 340.361C186.965 342.041 202.086 342.599 219.445 342.599C236.804 342.599 251.925 341.478 264.804 340.361L273.764 373.4C276.557 382.357 273.76 391.318 266.479 396.92H266.48ZM415.44 499.4C415.44 504.439 411.518 507.798 407.042 507.798L33.5216 507.802C28.4825 507.802 25.1232 503.88 25.1232 499.404V449.006C25.1232 411.486 55.3612 381.244 92.8852 381.244H140.487C141.046 395.244 147.768 408.123 158.967 416.525L192.006 441.166C200.405 447.326 210.486 450.685 220.006 450.685C230.084 450.685 239.608 447.326 248.006 441.166L281.045 416.525C292.244 408.127 298.967 395.244 299.525 381.244H347.127C384.647 381.244 414.889 411.482 414.889 449.006L414.881 499.401L415.44 499.4Z" fill="black"/>
<path d="M273.76 239C274.881 233.961 270.959 229.48 266.479 229.48H174.077C169.038 229.48 165.678 233.961 166.796 239C171.835 263.641 194.237 282.121 220.558 282.121C246.878 282.121 268.16 263.641 273.761 239H273.76Z" fill="black"/>
<path d="M177.44 197.56L190.881 205.958C193.682 207.638 197.6 204.837 196.483 202.037L192.561 186.357C192.002 184.677 192.561 183.556 193.682 182.435L205.444 172.357C208.245 170.118 206.565 165.638 203.205 165.638L187.526 164.517C185.846 164.517 184.725 163.396 184.166 162.278L178.006 147.72C176.885 144.36 172.404 144.36 170.725 147.72L164.565 162.278C164.006 163.4 162.885 164.517 161.205 164.517L145.525 165.638C142.166 165.638 140.486 170.118 143.287 172.357L155.049 182.435C156.17 183.556 156.728 184.673 156.17 186.357L152.248 202.037C151.689 205.396 155.049 208.197 157.85 205.958L171.291 197.56C174.638 196.443 176.318 196.443 177.439 197.56H177.44Z" fill="black"/>
<path d="M245.2 182.44C246.321 183.561 246.88 184.678 246.321 186.362L242.399 202.042C241.841 205.401 245.2 208.202 248.001 205.964L261.442 197.565C262.563 197.007 264.243 197.007 265.364 197.565L278.805 205.964C281.605 207.644 285.523 204.843 284.406 202.042L280.484 186.362C279.926 184.682 280.484 183.561 281.605 182.44L293.367 172.362C296.168 170.124 294.489 165.643 291.129 165.643L275.449 164.522C273.769 164.522 272.648 163.401 272.09 162.284L265.93 147.725C264.808 144.365 260.328 144.365 258.648 147.725L252.488 162.284C251.93 163.405 250.809 164.522 249.129 164.522L233.449 165.643C230.089 165.643 228.41 170.124 231.211 172.362L245.2 182.44Z" fill="black"/>
</svg>
