<svg width="30" viewBox="0 0 550 456" fill="none" xmlns="http://www.w3.org/2000/svg">
<path d="M485 93.83H441.438C431.196 93.8144 421.708 88.4433 416.422 79.67L387.606 31.647C375.965 12.37 355.11 0.565023 332.586 0.499023H217.416C194.896 0.569335 174.041 12.374 162.396 31.647L133.58 79.67C128.303 88.4395 118.822 93.811 108.588 93.83H65.002C47.986 93.8417 31.674 100.607 19.643 112.639C7.61198 124.671 0.845984 140.983 0.833984 157.998V391.328C0.845703 408.344 7.61128 424.656 19.643 436.687C31.6747 448.718 47.987 455.484 65.002 455.496H485.002C502.018 455.484 518.33 448.719 530.361 436.687C542.392 424.655 549.158 408.343 549.17 391.328V157.998C549.158 140.982 542.393 124.67 530.361 112.639C518.329 100.608 502.017 93.842 485.002 93.83H485ZM514.168 391.33C514.156 399.064 511.078 406.475 505.609 411.943C500.145 417.408 492.73 420.486 485 420.498H65.0004C57.2699 420.486 49.8554 417.408 44.3914 411.943C38.9226 406.474 35.8445 399.064 35.8328 391.33V158C35.8445 150.27 38.9226 142.855 44.3914 137.391C49.8562 131.922 57.2704 128.844 65.0004 128.832H108.586C131.106 128.766 151.961 116.957 163.606 97.6844L192.399 49.6644C197.692 40.8988 207.172 35.5274 217.415 35.5004H332.585C342.819 35.5317 352.292 40.8988 357.577 49.6644L386.37 97.6844C398.034 116.961 418.901 128.766 441.436 128.832H484.998C492.729 128.844 500.143 131.922 505.607 137.391C511.076 142.856 514.154 150.27 514.166 158L514.168 391.33Z" fill="black"/>
<path d="M275 117.17C239.418 117.17 205.289 131.303 180.129 156.467C154.969 181.627 140.832 215.752 140.832 251.334C140.832 286.92 154.969 321.045 180.129 346.205C205.289 371.365 239.418 385.502 275 385.502C310.582 385.502 344.711 371.365 369.871 346.205C395.031 321.045 409.168 286.92 409.168 251.334C409.125 215.764 394.973 181.666 369.824 156.514C344.672 131.362 310.57 117.213 275 117.17V117.17ZM275 350.5C248.699 350.5 223.477 340.051 204.879 321.453C186.281 302.855 175.832 277.633 175.832 251.332C175.832 225.031 186.281 199.809 204.879 181.211C223.477 162.613 248.699 152.168 275 152.168C301.301 152.168 326.523 162.613 345.121 181.211C363.719 199.809 374.168 225.031 374.168 251.332C374.137 277.625 363.68 302.828 345.086 321.422C326.496 340.012 301.293 350.469 275 350.5Z" fill="black"/>
</svg>
