<svg width="538" height="504" viewBox="0 0 538 504" fill="none" xmlns="http://www.w3.org/2000/svg">
<path d="M537.8 84.0001C537.8 92.9103 534.261 101.457 527.956 107.758C521.655 114.059 513.108 117.602 504.198 117.602H268.998C256.994 117.602 245.9 111.196 239.9 100.801C233.896 90.4029 233.896 77.5979 239.9 67.1989C245.9 56.8039 256.994 50.3979 268.998 50.3979H504.198C513.108 50.3979 521.655 53.9409 527.956 60.2417C534.261 66.5425 537.8 75.0897 537.8 83.9997V84.0001ZM52.05 141.344C58.3508 147.637 66.89 151.172 75.796 151.172C84.6983 151.172 93.237 147.637 99.538 141.344L183.538 57.3441C191.917 48.8402 195.151 36.5281 192.038 25.0001C188.925 13.4721 179.929 4.46507 168.405 1.34007C156.882 -1.78883 144.565 1.42992 136.05 9.80097L75.796 70.055L57.538 51.797V51.8009C49.0224 43.4298 36.706 40.2109 25.186 43.34C13.663 46.465 4.666 55.473 1.549 67C-1.5643 78.527 1.67009 90.84 10.049 99.344L52.05 141.344ZM504.19 226.801H268.99C256.986 226.801 245.892 233.203 239.892 243.602C233.888 253.997 233.888 266.805 239.892 277.2C245.892 287.598 256.986 294.001 268.99 294.001H504.19C516.194 294.001 527.288 287.599 533.288 277.2C539.292 266.805 539.292 253.997 533.288 243.602C527.288 233.204 516.194 226.801 504.19 226.801ZM52.05 317.742C58.3508 324.035 66.89 327.57 75.796 327.57C84.6983 327.57 93.237 324.035 99.538 317.742L183.538 233.742C189.929 227.465 193.546 218.894 193.589 209.933C193.628 200.976 190.093 192.371 183.761 186.035C177.429 179.695 168.831 176.148 159.87 176.18C150.913 176.211 142.339 179.816 136.05 186.2L75.7959 246.399L57.5379 228.141V228.144C51.2527 221.762 42.6789 218.156 33.7179 218.124C24.7609 218.093 16.1589 221.64 9.8309 227.976C3.4989 234.316 -0.0402018 242.921 0.00279819 251.878C0.0457672 260.835 3.663 269.409 10.0498 275.687L52.05 317.742ZM504.19 403.199H268.99C256.986 403.199 245.892 409.605 239.892 420C233.888 430.395 233.888 443.203 239.892 453.602C245.892 463.997 256.986 470.399 268.99 470.399H504.19C516.194 470.399 527.288 463.997 533.288 453.602C539.292 443.204 539.292 430.395 533.288 420C527.288 409.605 516.194 403.199 504.19 403.199ZM75.79 503.999C84.6962 503.991 93.239 500.444 99.532 494.144L183.532 410.144C191.911 401.636 195.145 389.324 192.032 377.8C188.919 366.273 179.923 357.265 168.399 354.136C156.876 351.011 144.559 354.229 136.044 362.6L75.79 422.854L57.532 404.596V404.6C49.0164 396.229 36.7 393.01 25.18 396.135C13.657 399.264 4.66 408.272 1.543 419.799C-1.5703 431.322 1.66409 443.635 10.043 452.143L52.043 494.143C58.3399 500.444 66.879 503.991 75.789 503.999L75.79 503.999Z" fill="black"/>
</svg>
