<svg width="27" viewBox="0 0 456 526" fill="none" xmlns="http://www.w3.org/2000/svg">
<path d="M403 53H350.5C350.5 39.074 344.969 25.723 335.125 15.875C325.277 6.0312 311.926 0.5 298 0.5H158C144.074 0.5 130.723 6.0312 120.875 15.875C111.031 25.7227 105.5 39.074 105.5 53H53C39.074 53 25.723 58.5312 15.875 68.375C6.0312 78.2227 0.5 91.574 0.5 105.5V473C0.5 486.926 6.0312 500.277 15.875 510.125C25.7227 519.969 39.074 525.5 53 525.5H403C416.926 525.5 430.277 519.969 440.125 510.125C449.969 500.277 455.5 486.926 455.5 473V105.5C455.5 91.574 449.969 78.223 440.125 68.375C430.277 58.5312 416.926 53 403 53ZM140.5 53C140.5 48.3594 142.344 43.9062 145.625 40.625C148.906 37.3438 153.359 35.5 158 35.5H298C302.641 35.5 307.094 37.3438 310.375 40.625C313.656 43.9062 315.5 48.3594 315.5 53V88C315.5 92.6406 313.656 97.0938 310.375 100.375C307.094 103.656 302.641 105.5 298 105.5H158C153.359 105.5 148.906 103.656 145.625 100.375C142.344 97.0938 140.5 92.6406 140.5 88V53ZM420.5 473C420.5 477.641 418.656 482.094 415.375 485.375C412.094 488.656 407.641 490.5 403 490.5H53C48.3594 490.5 43.9062 488.656 40.625 485.375C37.3438 482.094 35.5 477.641 35.5 473V105.5C35.5 100.859 37.3438 96.4062 40.625 93.125C43.9062 89.8438 48.3594 88 53 88H105.5C105.5 101.926 111.031 115.277 120.875 125.125C130.723 134.969 144.074 140.5 158 140.5H298C311.926 140.5 325.277 134.969 335.125 125.125C344.969 115.277 350.5 101.926 350.5 88H403C407.641 88 412.094 89.8438 415.375 93.125C418.656 96.4062 420.5 100.859 420.5 105.5V473ZM310.07 232.9C313.332 236.181 315.16 240.615 315.16 245.24C315.16 249.861 313.332 254.299 310.07 257.576L218.894 353.303C215.64 356.815 211.085 358.838 206.296 358.901C201.956 358.893 197.78 357.268 194.569 354.354L146.62 310.956V310.952C142.413 306.667 140.702 300.522 142.081 294.675C143.46 288.831 147.745 284.101 153.425 282.148C159.105 280.195 165.386 281.292 170.07 285.054L205.07 317.253L285.047 233.429C288.266 229.992 292.738 227.999 297.449 227.898C302.156 227.8 306.707 229.605 310.07 232.902L310.07 232.9Z" fill="black"/>
</svg>
