<svg height="30" viewBox="0 0 462 506" fill="currentColor" xmlns="http://www.w3.org/2000/svg">
<path d="M428.12 1H33.88C15.4 1 0.278015 16.121 0.278015 34.602V471.402C0.278015 489.882 15.399 505.004 33.88 505.004L124.603 505H428.123C446.603 505 461.725 489.879 461.725 471.398L461.721 34.5981C461.721 16.1181 446.604 0.996094 428.123 0.996094L428.12 1ZM169.4 460.2V381.802H292.6V460.2H169.4ZM416.92 460.2H337.397V370.602C337.397 352.122 322.276 337 303.795 337H158.195C139.715 337 124.593 352.121 124.593 370.602V460.204L45.073 460.2V45.8001H416.913L416.92 460.2ZM119 113C119 100.68 129.078 90.602 141.398 90.602C153.718 90.602 163.796 100.68 163.796 113C163.796 125.32 153.718 135.398 141.398 135.398C129.078 135.398 119 125.32 119 113V113ZM119 269.8C119 257.48 129.078 247.402 141.398 247.402C153.718 247.402 163.796 257.48 163.796 269.8C163.796 282.12 153.718 292.198 141.398 292.198C129.078 292.198 119 282.12 119 269.8V269.8ZM119 191.398C119 179.078 129.078 169 141.398 169C153.718 169 163.796 179.078 163.796 191.398C163.796 203.718 153.718 213.796 141.398 213.796C129.078 213.8 119 203.718 119 191.398V191.398ZM208.602 113C208.602 100.68 218.68 90.602 231 90.602C243.32 90.602 253.398 100.68 253.398 113C253.398 125.32 243.32 135.398 231 135.398C218.68 135.398 208.602 125.32 208.602 113ZM208.602 269.8C208.602 257.48 218.68 247.402 231 247.402C243.32 247.402 253.398 257.48 253.398 269.8C253.398 282.12 243.32 292.198 231 292.198C218.68 292.198 208.602 282.12 208.602 269.8ZM208.602 191.398C208.602 179.078 218.68 169 231 169C243.32 169 253.398 179.078 253.398 191.398C253.398 203.718 243.32 213.796 231 213.796C218.68 213.8 208.602 203.718 208.602 191.398ZM298.2 113C298.2 100.68 308.278 90.602 320.598 90.602C332.918 90.602 342.996 100.68 342.996 113C342.996 125.32 332.918 135.398 320.598 135.398C308.282 135.398 298.2 125.32 298.2 113ZM298.2 269.8C298.2 257.48 308.278 247.402 320.598 247.402C332.918 247.402 342.996 257.48 342.996 269.8C342.996 282.12 332.918 292.198 320.598 292.198C308.282 292.198 298.2 282.12 298.2 269.8ZM298.2 191.398C298.2 179.078 308.278 169 320.598 169C332.918 169 342.996 179.078 342.996 191.398C342.996 203.718 332.918 213.796 320.598 213.796C308.282 213.8 298.2 203.718 298.2 191.398Z" fill="currentColor"/>
</svg>
