<svg width="25" viewBox="0 0 494 532" fill="none" xmlns="http://www.w3.org/2000/svg">
<path d="M61.08 0H46.521C21.322 0 0.598999 20.719 0.598999 45.922C0.602905 71.121 20.763 92.399 46.521 92.399H61.08C86.279 92.399 107.002 71.68 107.002 46.477C107.002 21.282 86.283 0 61.08 0V0Z" fill="black"/>
<path d="M61.08 220.08H46.521C21.322 220.08 0.598999 240.799 0.598999 266.002C0.598999 291.201 21.318 311.924 46.521 311.924H61.08C86.279 311.924 107.002 291.205 107.002 266.002C107.002 240.803 86.283 220.08 61.08 220.08V220.08Z" fill="black"/>
<path d="M61.08 439.6H46.521C21.322 439.6 0.598999 460.319 0.598999 485.522C0.598999 510.721 21.318 531.444 46.521 531.444H61.08C86.279 531.444 107.002 510.725 107.002 485.522C107.002 460.319 86.283 439.6 61.08 439.6Z" fill="black"/>
<path d="M215.08 92.3999H447.48C472.679 92.3999 493.402 71.6809 493.402 46.4779C493.402 21.2789 472.683 0.555908 447.48 0.555908L215.08 0.559814C189.881 0.559814 169.158 21.2788 169.158 46.4818C169.162 71.6808 189.881 92.3998 215.08 92.3998V92.3999Z" fill="black"/>
<path d="M447.48 220.08H215.08C189.881 220.08 169.158 240.799 169.158 266.002C169.158 291.201 189.877 311.924 215.08 311.924H447.48C472.679 311.924 493.402 291.205 493.402 266.002C493.402 240.803 473.242 220.08 447.484 220.08H447.48Z" fill="black"/>
<path d="M447.48 439.6H215.08C189.881 439.6 169.158 460.319 169.158 485.522C169.158 510.721 189.877 531.444 215.08 531.444H447.48C472.679 531.444 493.402 510.725 493.402 485.522C493.402 460.319 473.242 439.6 447.484 439.6H447.48Z" fill="black"/>
</svg>
