<svg width="30" viewBox="0 0 502 466" fill="none" xmlns="http://www.w3.org/2000/svg">
<path d="M157.67 465.61H344.34H344.336C373.719 465.575 401.891 453.883 422.668 433.106C443.445 412.329 455.133 384.161 455.172 354.778V190.538L473.395 205.12C478.274 209.03 484.872 210.038 490.696 207.764C496.524 205.495 500.696 200.284 501.641 194.104C502.586 187.921 500.161 181.706 495.282 177.795L291.092 14.4654C279.74 5.30525 265.592 0.309448 251.006 0.309448C236.42 0.309448 222.272 5.30555 210.92 14.4654L6.72968 177.795C3.10858 180.698 0.784389 184.92 0.276589 189.533C-0.235131 194.151 1.10862 198.776 4.01099 202.4C6.91336 206.025 11.136 208.346 15.753 208.854C20.3663 209.365 24.9952 208.022 28.616 205.119L46.839 190.537V354.777C46.878 384.16 58.566 412.328 79.343 433.105C100.12 453.882 128.292 465.574 157.675 465.609L157.67 465.61ZM232.779 41.7899C237.935 37.6258 244.365 35.3563 250.99 35.3563C257.619 35.3563 264.045 37.6258 269.201 41.7899L420.171 162.54V354.78C420.144 374.885 412.148 394.159 397.933 408.374C383.714 422.589 364.441 430.589 344.335 430.612H157.675C137.57 430.589 118.296 422.589 104.077 408.374C89.862 394.159 81.866 374.886 81.839 354.78V162.54L232.779 41.7899Z" fill="black"/>
<path d="M251 343.83C272.852 343.83 293.809 335.15 309.258 319.701C324.711 304.248 333.391 283.291 333.391 261.439C333.391 239.591 324.711 218.634 309.258 203.181C293.809 187.732 272.852 179.052 251 179.052C229.148 179.052 208.191 187.732 192.742 203.181C177.289 218.634 168.609 239.591 168.609 261.439C168.632 283.283 177.324 304.228 192.769 319.673C208.214 335.118 229.156 343.806 250.999 343.829L251 343.83ZM251 214.07V214.074C263.57 214.074 275.625 219.066 284.512 227.957C293.399 236.844 298.391 248.902 298.391 261.469C298.387 274.039 293.391 286.094 284.5 294.981C275.609 303.868 263.555 308.856 250.984 308.852C238.414 308.848 226.359 303.852 217.476 294.957C208.593 286.066 203.605 274.008 203.609 261.437C203.629 248.878 208.628 236.839 217.511 227.957C226.394 219.078 238.437 214.086 250.999 214.074L251 214.07Z" fill="black"/>
</svg>
