<svg width="28" viewBox="0 0 510 510" fill="none" xmlns="http://www.w3.org/2000/svg">
<path d="M451 58.9999C372.602 -19.3981 245.48 -19.3981 167.08 58.9999C97.639 128.441 89.799 235.4 143.002 313.8L11.402 445.4C-3.15699 459.959 -3.15699 484.041 11.402 498.599C25.961 513.158 50.043 513.158 64.601 498.599L196.201 366.999C274.599 420.198 381.561 412.358 451.001 342.921C529.399 264.523 529.399 137.401 451.001 59.0009L451 58.9999ZM209.64 300.36C154.761 245.481 154.761 157 209.64 102.12C264.519 47.2399 353 47.2409 407.88 102.12C462.76 156.999 462.759 245.48 407.88 300.36C353.001 355.24 264.52 354.68 209.64 300.36Z" fill="black"/>
</svg>
