<svg width="25" viewBox="0 0 453 540" fill="none" xmlns="http://www.w3.org/2000/svg">
<path d="M334.5 426.19H116.19C111.378 426.19 108.315 429.69 108.315 434.065C108.315 438.877 111.815 441.94 116.19 441.94H334.07C338.883 441.94 342.82 438.44 342.82 434.065C342.82 429.252 339.32 426.19 334.508 426.19H334.5Z" fill="black"/>
<path d="M322.69 266.94C307.378 263.002 282.44 256.878 271.94 253.815L226.002 285.315L180.064 253.815C169.564 256.877 145.064 263.002 129.314 266.94C121.439 269.127 115.314 275.69 114.439 284.002C111.814 303.69 107.001 360.564 107.001 360.564H345.441C345.441 360.564 340.191 303.689 338.004 284.002C336.691 275.689 330.566 269.127 322.692 266.94H322.69Z" fill="black"/>
<path d="M176.56 197.81C181.373 221.435 201.935 238.498 225.998 238.498C250.061 238.498 271.06 221.436 275.436 197.81L283.311 157.998C287.686 126.06 262.749 97.623 230.811 97.623H221.624C189.249 97.623 164.749 126.061 169.124 157.998L176.56 197.81Z" fill="black"/>
<path d="M396.19 0.938035H61.07C27.382 0.938035 0.258003 25.876 0.258003 56.938V478.688C0.258003 510.626 29.133 539.5 61.07 539.5H396.19C426.815 539.5 452.19 512.375 452.19 478.688V56.498C452.19 24.123 428.565 0.936035 396.19 0.936035V0.938035ZM416.315 478.248C416.315 490.498 408.44 503.623 396.19 503.623H61.07C48.382 503.623 35.695 490.935 35.695 478.248V56.498C35.695 43.81 48.82 36.373 61.07 36.373H396.19C408.878 36.373 416.315 44.248 416.315 56.498V478.248Z" fill="black"/>
</svg>
