<svg height="30" viewBox="0 0 505 376" fill="none" xmlns="http://www.w3.org/2000/svg">
<path d="M16.8 16.59C12.343 16.59 8.06948 18.3595 4.92098 21.508C1.76868 24.6603 -0.000915527 28.9338 -0.000915527 33.387V342.617C-0.000915527 348.617 3.20218 354.164 8.39748 357.164C13.5967 360.168 20.0025 360.168 25.1985 357.164C30.3977 354.164 33.6008 348.617 33.6008 342.617V33.387C33.6008 28.9339 31.8274 24.6604 28.6789 21.508C25.5266 18.3596 21.2531 16.59 16.7999 16.59H16.8Z" fill="currentColor"/>
<path d="M79.69 16.59C75.233 16.59 70.9634 18.3595 67.811 21.508C64.6587 24.6603 62.8891 28.9338 62.8891 33.387V342.617C62.8891 348.617 66.0922 354.164 71.2914 357.164C76.4867 360.168 82.8934 360.168 88.0924 357.164C93.2877 354.164 96.4908 348.617 96.4908 342.617V33.387C96.4908 28.9339 94.7213 24.6604 91.5689 21.508C88.4205 18.3596 84.147 16.59 79.6899 16.59H79.69Z" fill="currentColor"/>
<path d="M475.61 0.960938H158.37C142.636 0.960938 129.921 15.4649 129.921 33.3869L129.925 342.617C129.925 360.539 142.636 375.043 158.374 375.043L475.614 375.039C491.294 375.039 504.005 360.535 504.005 342.613V33.383C504.005 15.465 491.294 0.961029 475.614 0.961029L475.61 0.960938ZM316.96 47.9999C332.956 47.9999 348.296 54.3632 359.601 65.6839C370.902 77.0039 377.238 92.3519 377.214 108.352C377.191 124.348 370.804 139.676 359.468 150.961C348.128 162.246 332.769 168.563 316.773 168.512C300.777 168.461 285.453 162.055 274.187 150.7C262.917 139.345 256.628 123.973 256.703 107.977C256.777 92.0429 263.16 76.7889 274.453 65.5509C285.742 54.3089 301.027 47.9999 316.961 47.9999H316.96ZM416.585 308.46C416.569 313.722 414.468 318.765 410.741 322.48C407.015 326.195 401.968 328.285 396.702 328.285H237.212C231.954 328.285 226.915 326.195 223.196 322.476C219.477 318.761 217.388 313.718 217.388 308.46V218.858C217.395 214.467 218.852 210.202 221.536 206.725C224.223 203.252 227.981 200.764 232.227 199.651L274.954 188.452H274.958C279.102 187.409 283.474 187.737 287.411 189.397C291.348 191.053 294.645 193.944 296.798 197.635L299.653 202.452C303.216 208.499 309.712 212.21 316.731 212.21C323.754 212.21 330.251 208.499 333.813 202.452L336.669 197.635C338.848 193.917 342.184 191.01 346.169 189.362C350.149 187.714 354.563 187.413 358.731 188.507L401.458 199.706H401.462C405.715 200.819 409.481 203.303 412.176 206.776C414.868 210.252 416.341 214.518 416.356 218.913L416.585 308.46Z" fill="currentColor"/>
</svg>
