<svg width="34" viewBox="0 0 496 432" fill="none" xmlns="http://www.w3.org/2000/svg">
<path d="M292 431.33L330.289 371.744C344.789 378.146 360.777 381.767 377.613 381.767C442.468 381.767 495.223 329.005 495.223 264.157C495.223 199.309 442.465 146.547 377.613 146.547C312.758 146.547 260.003 199.309 260.003 264.157C260.003 300.993 277.05 333.895 303.644 355.477L265.339 415.094L292 431.33ZM377.613 350.537C329.98 350.537 291.222 311.783 291.222 264.15C291.222 216.517 329.98 177.763 377.613 177.763C425.246 177.763 464 216.517 464 264.15C464 311.787 425.246 350.537 377.613 350.537Z" fill="black"/>
<path d="M209.82 139.79C171.09 140.001 140.297 110.2 139.422 71.6609C138.543 32.8369 171.125 0.172896 210.223 0.680896C248.672 1.1809 278.789 31.9699 278.672 70.6579C278.555 109.697 248.797 139.576 209.82 139.791V139.79Z" fill="black"/>
<path d="M122.17 141.87C122.467 167.749 103.025 188.366 77.377 189.374C50.553 190.429 28.869 169.78 28.631 142.96C28.3967 116.315 50.084 94.4869 76.272 95.0029C101.424 95.4951 121.877 116.386 122.17 141.87V141.87Z" fill="black"/>
<path d="M91.93 212.48C87.473 240.777 83.3402 266.984 78.942 294.863H3.45401C-12.366 250.383 45.001 192.043 91.931 212.48H91.93Z" fill="black"/>
<path d="M240.33 262.6C240.33 230.838 251.646 201.666 270.447 178.909C266.92 176.561 263.252 174.288 259.279 172.182C218.361 150.463 178.045 155.35 141.459 183.518C107.572 209.604 92.432 256.163 103.814 295.118H244.404C241.756 284.708 240.334 273.817 240.334 262.598L240.33 262.6Z" fill="black"/>
<path d="M371.93 131C377.664 131 383.297 131.41 388.84 132.125C384.152 111.164 365.953 95.2809 343.918 94.9959C318.008 94.6599 295.555 117.246 295.992 143.207C296.058 146.961 296.629 150.597 297.558 154.105C318.734 139.543 344.355 131 371.929 131H371.93Z" fill="black"/>
</svg>
