<svg width="500" height="354" viewBox="0 0 500 354" fill="none" xmlns="http://www.w3.org/2000/svg">
<path d="M499.97 317.41L433.978 209.09C460.568 187.508 477.619 154.61 477.619 117.77C477.619 52.9149 424.857 0.149902 360.009 0.149902C295.154 0.149902 242.389 52.9119 242.389 117.77C242.389 182.628 295.151 235.38 360.009 235.38C376.849 235.38 392.829 231.763 407.329 225.357L473.302 333.657L499.97 317.41ZM273.62 117.77C273.62 70.1289 312.374 31.3789 360.011 31.3789C407.644 31.3789 446.398 70.1329 446.398 117.77C446.398 165.403 407.644 204.161 360.011 204.161C312.37 204.161 273.62 165.403 273.62 117.77Z" fill="black"/>
<path d="M317.2 353.84H103.07C91.691 314.879 106.832 268.32 140.718 242.23C177.296 214.066 217.616 209.179 258.538 230.902C306.233 256.218 321.64 298.867 317.198 353.842L317.2 353.84Z" fill="black"/>
<path d="M121.42 200.59C121.717 226.473 102.268 247.094 76.627 248.094C49.803 249.149 28.115 228.492 27.881 201.688C27.6466 175.043 49.334 153.215 75.526 153.731C100.674 154.223 121.124 175.102 121.421 200.59H121.42Z" fill="black"/>
<path d="M91.18 271.2C86.723 299.501 82.5902 325.704 78.2 353.587H2.712C-13.116 309.107 44.251 250.767 91.181 271.2H91.18Z" fill="black"/>
<path d="M424.33 353.77H335.213C330.084 321.958 325.229 291.813 320.248 260.922C371.338 238.035 425.188 282.352 424.328 353.77H424.33Z" fill="black"/>
<path d="M234.39 64.4299C226.691 61.3518 218.339 59.5119 209.476 59.3947C170.382 58.8908 137.796 91.5627 138.675 130.379C139.55 168.922 170.343 198.715 209.073 198.508C223.831 198.422 237.241 194.066 248.245 186.598C233.987 165.262 225.6 139.7 225.6 112.172C225.604 95.3627 228.729 79.2807 234.389 64.4297L234.39 64.4299Z" fill="black"/>
<path d="M343.17 153.73C332.272 153.597 322.018 157.542 313.787 164.05C326.096 175.03 342.264 181.769 360.01 181.769C368.08 181.769 375.803 180.312 383.014 177.777C375.057 163.64 360.299 153.949 343.17 153.73V153.73Z" fill="black"/>
</svg>
