<svg height="30" viewBox="0 0 518 494" fill="none" xmlns="http://www.w3.org/2000/svg">
<path d="M254.92 0.608887C211.162 0.608887 174.865 28.0039 158.627 65.9639C143.4 52.0619 124.748 41.8159 102.576 41.8159C55.388 41.8159 16.764 80.3939 16.764 127.582C16.764 145.844 24.0804 161.539 33.897 175.391C15.374 177.86 0.26001 192.403 0.26001 211.528V455.438C0.26001 476.262 17.42 493.352 38.225 493.352L364.475 493.395C385.319 493.395 402.44 476.247 402.44 455.43V431.453L472.526 473.156L473.21 473.472C477.534 475.711 482.335 476.894 487.112 476.894C492.651 476.894 498.147 475.363 502.975 472.433C512.135 466.851 517.745 456.745 517.745 446.042V220.912C517.745 210.185 512.143 200.158 503.026 194.576C494.065 189.057 482.471 188.705 472.854 193.623L472.486 193.807L402.443 235.455V211.533C402.443 190.709 385.31 173.568 364.478 173.568H333.939C349.619 155.025 361.283 133.064 361.283 106.99C361.283 48.4427 313.463 0.629734 254.923 0.629734L254.92 0.608887ZM254.92 40.3939C291.732 40.3939 321.498 70.1599 321.498 106.972C321.498 143.784 291.732 173.55 254.92 173.55C218.108 173.55 188.342 143.784 188.342 106.972C188.342 70.1599 218.108 40.3939 254.92 40.3939V40.3939ZM102.56 81.5889C128.04 81.5889 148.54 102.116 148.54 127.569C148.54 153.022 128.028 173.549 102.56 173.549C77.08 173.549 56.537 153.014 56.537 127.569C56.537 102.124 77.115 81.5889 102.56 81.5889ZM40.087 213.349L362.607 213.392V453.562H40.087V213.349ZM477.947 236.861V430.041L402.435 385.154V281.744L477.947 236.861Z" fill="currentColor"/>
</svg>
