<svg width="30" viewBox="0 0 328 328" fill="none" xmlns="http://www.w3.org/2000/svg">
<path fill-rule="evenodd" clip-rule="evenodd" d="M40.5 7.50001C31.3867 -1.61329 16.613 -1.61329 7.50001 7.50001C-1.61299 16.6133 -1.61329 31.387 7.50001 40.5L131 164L7.50001 287.5C-1.61329 296.613 -1.61329 311.387 7.50001 320.5C16.6133 329.609 31.387 329.609 40.5 320.5L164 197L287.5 320.5C296.613 329.609 311.387 329.609 320.5 320.5C329.609 311.387 329.609 296.613 320.5 287.5L197 164L320.5 40.5C329.609 31.3867 329.609 16.613 320.5 7.50001C311.387 -1.61329 296.613 -1.61329 287.5 7.50001L164 131L40.5 7.50001Z" fill="black"/>
</svg>
